<svg width="32" height="32" viewBox="0 0 32 32" fill="none" xmlns="http://www.w3.org/2000/svg">
<g clip-path="url(#clip0_127_1997)">
<path d="M32 0H0V32H32V0Z" fill="#5538EE"/>
<path d="M15.9777 7.771H16.441V11.3026H15.9777V7.771Z" fill="white"/>
<path d="M15.9777 6H16.441V7.19313H15.9777V6Z" fill="white"/>
<path d="M17.6912 11.5236L18.8996 8.2042L19.3343 8.36245L18.1258 11.6818L17.6912 11.5236Z" fill="white"/>
<path d="M19.0963 7.66138L19.5041 6.54007L19.9389 6.69818L19.5311 7.81948L19.0963 7.66138Z" fill="white"/>
<path d="M19.2259 12.3149L21.496 9.61025L21.8503 9.90763L19.5803 12.6123L19.2259 12.3149Z" fill="white"/>
<path d="M21.8678 9.16675L22.6348 8.25281L22.9891 8.55019L22.2221 9.46413L21.8678 9.16675Z" fill="white"/>
<path d="M20.3967 13.5862L23.4544 11.8189L23.6859 12.2194L20.6282 13.9867L20.3967 13.5862Z" fill="white"/>
<path d="M23.9559 11.5323L24.9892 10.9359L25.2205 11.3365L24.1871 11.933L23.9559 11.5323Z" fill="white"/>
<path d="M21.0614 15.1801L24.5394 14.567L24.6197 15.0225L21.1417 15.6356L21.0614 15.1801Z" fill="white"/>
<path d="M25.1084 14.4672L26.2834 14.26L26.3637 14.7156L25.1887 14.9227L25.1084 14.4672Z" fill="white"/>
<path d="M21.0616 17.3611L21.1419 16.9055L24.6198 17.5186L24.5395 17.9742L21.0616 17.3611Z" fill="white"/>
<path d="M25.1079 18.0751L25.1882 17.6195L26.3632 17.8267L26.2829 18.2822L25.1079 18.0751Z" fill="white"/>
<path d="M20.3959 18.9539L20.6272 18.5533L23.6856 20.3191L23.4543 20.7197L20.3959 18.9539Z" fill="white"/>
<path d="M23.9551 21.0101L24.1865 20.6096L25.2196 21.2064L24.9882 21.6069L23.9551 21.0101Z" fill="white"/>
<path d="M21.8668 23.3718L22.2212 23.0745L22.988 23.9886L22.6336 24.2859L21.8668 23.3718Z" fill="white"/>
<path d="M9.42992 23.99L10.1969 23.076L10.5512 23.3734L9.78425 24.2873L9.42992 23.99Z" fill="white"/>
<path d="M8.73232 20.3198L11.7907 18.554L12.022 18.9546L8.9636 20.7204L8.73232 20.3198Z" fill="white"/>
<path d="M7.19859 21.2058L8.23173 20.609L8.46311 21.0095L7.42997 21.6064L7.19859 21.2058Z" fill="white"/>
<path d="M7.79822 17.5182L11.2762 16.9051L11.3565 17.3606L7.87852 17.9737L7.79822 17.5182Z" fill="white"/>
<path d="M6.05406 17.8259L7.22906 17.6189L7.30932 18.0745L6.13432 18.2815L6.05406 17.8259Z" fill="white"/>
<path d="M7.79791 15.0231L7.87821 14.5675L11.3562 15.1806L11.2759 15.6362L7.79791 15.0231Z" fill="white"/>
<path d="M6.05357 14.7153L6.13383 14.2598L7.30883 14.4668L7.22857 14.9223L6.05357 14.7153Z" fill="white"/>
<path d="M8.73199 12.2214L8.96328 11.8208L12.0217 13.5867L11.7904 13.9873L8.73199 12.2214Z" fill="white"/>
<path d="M7.19844 11.3352L7.42968 10.9346L8.46305 11.531L8.23181 11.9317L7.19844 11.3352Z" fill="white"/>
<path d="M10.5679 9.9082L10.9222 9.61086L13.1924 12.3161L12.838 12.6134L10.5679 9.9082Z" fill="white"/>
<path d="M9.43022 8.55103L9.78464 8.25378L10.5514 9.16796L10.1969 9.4652L9.43022 8.55103Z" fill="white"/>
<path d="M13.0852 8.36292L13.52 8.20481L14.7273 11.5245L14.2926 11.6826L13.0852 8.36292Z" fill="white"/>
<path d="M12.4792 6.6991L12.9139 6.54085L13.3221 7.66204L12.8874 7.82028L12.4792 6.6991Z" fill="white"/>
<path d="M19.7659 10.6149L21.5414 7.56219L21.1408 7.32983L19.3654 10.3825L19.7659 10.6149Z" fill="white"/>
<path d="M18.4752 11.9143L18.8758 12.1466L19.4759 11.1153L19.0754 10.8829L18.4752 11.9143Z" fill="white"/>
<path d="M21.1898 11.8164L23.9021 9.55439L24.1988 9.91019L21.4865 12.1722L21.1898 11.8164Z" fill="white"/>
<path d="M19.8284 12.9506L20.7443 12.186L21.0412 12.5417L20.1252 13.3062L19.8284 12.9506Z" fill="white"/>
<path d="M22.4131 13.788L25.7357 12.5904L25.8928 13.0262L22.5702 14.2238L22.4131 13.788Z" fill="white"/>
<path d="M20.7458 14.3899L21.8682 13.9852L22.0253 14.421L20.9029 14.8257L20.7458 14.3899Z" fill="white"/>
<path d="M22.8855 16.5222L22.8873 16.0589L26.419 16.0729L26.4171 16.5362L22.8855 16.5222Z" fill="white"/>
<path d="M21.1139 16.5173L21.1153 16.0541L22.3084 16.0577L22.307 16.5209L21.1139 16.5173Z" fill="white"/>
<path d="M22.3958 18.7919L22.5556 18.357L25.8704 19.5751L25.7106 20.0099L22.3958 18.7919Z" fill="white"/>
<path d="M20.733 18.1812L20.8928 17.7463L22.0127 18.1578L21.8529 18.5927L20.733 18.1812Z" fill="white"/>
<path d="M21.1608 20.7559L21.4592 20.4025L24.1574 22.6811L23.859 23.0345L21.1608 20.7559Z" fill="white"/>
<path d="M8.22102 22.6316L10.9337 20.3699L11.2304 20.7258L8.51771 22.9874L8.22102 22.6316Z" fill="white"/>
<path d="M11.3772 19.9982L12.2926 19.2341L12.5895 19.5897L11.6741 20.3538L11.3772 19.9982Z" fill="white"/>
<path d="M6.52779 19.5146L9.85036 18.3171L10.0075 18.7529L6.68489 19.9505L6.52779 19.5146Z" fill="white"/>
<path d="M10.3933 18.1201L11.5162 17.7148L11.6735 18.1506L10.5506 18.5559L10.3933 18.1201Z" fill="white"/>
<path d="M6 16.47L6.00143 16.0067L9.53307 16.0176L9.53165 16.4808L6 16.47Z" fill="white"/>
<path d="M10.1094 16.4838L10.1108 16.0205L11.304 16.0241L11.3026 16.4874L10.1094 16.4838Z" fill="white"/>
<path d="M6.54727 12.968L6.7071 12.5332L10.0219 13.7516L9.86208 14.1864L6.54727 12.968Z" fill="white"/>
<path d="M10.4053 14.385L10.5651 13.9501L11.6851 14.3616L11.5253 14.7965L10.4053 14.385Z" fill="white"/>
<path d="M8.26044 9.86218L8.55889 9.50878L11.2571 11.7874L10.9586 12.1408L8.26044 9.86218Z" fill="white"/>
<path d="M11.4006 12.5131L11.6989 12.1596L12.6107 12.9291L12.3124 13.2826L11.4006 12.5131Z" fill="white"/>
<path d="M10.9317 7.52917L11.3336 7.29878L13.0899 10.3628L12.688 10.5932L10.9317 7.52917Z" fill="white"/>
<path d="M13.5686 12.1308L13.9698 11.8999L13.3768 10.8643L12.9756 11.0952L13.5686 12.1308Z" fill="white"/>
<path d="M14.2397 6.25061L14.6955 6.17165L15.2984 9.65138L14.8426 9.73034L14.2397 6.25061Z" fill="white"/>
<path d="M14.9406 10.2996L15.3971 10.2208L15.6 11.3965L15.1434 11.4753L14.9406 10.2996Z" fill="white"/>
<path d="M17.1634 9.65906L17.7842 6.1825L18.2403 6.26395L17.6194 9.7405L17.1634 9.65906Z" fill="white"/>
<path d="M16.849 11.4026L17.0588 10.2281L17.5148 10.3095L17.3051 11.484L16.849 11.4026Z" fill="white"/>
<path d="M19.9299 19.7158L20.7203 20.3836L21.019 20.0301L20.1074 19.2603L20.0853 19.286C20.1829 19.033 20.2898 18.7814 20.4046 18.5326C20.473 18.3851 20.5443 18.2382 20.6191 18.0928C20.7367 17.864 20.7581 17.6089 20.6961 17.3794C20.6348 17.1499 20.4916 16.9446 20.2792 16.8163C20.2606 16.8049 20.2407 16.7956 20.2207 16.7857C20.2129 16.7814 20.205 16.7771 20.1972 16.7736C20.1787 16.765 20.1587 16.7572 20.1395 16.75C20.1266 16.745 20.1138 16.7408 20.1003 16.7365C20.0832 16.7308 20.0653 16.7258 20.0475 16.7208C20.0276 16.7158 20.0069 16.7115 19.9862 16.708C19.9741 16.7058 19.962 16.703 19.9492 16.7016C19.9164 16.6973 19.8836 16.6951 19.8508 16.6951C19.8465 16.6951 19.8422 16.6944 19.838 16.6944C19.7867 16.6944 19.736 16.6994 19.6854 16.708C19.6826 16.7087 19.679 16.7094 19.6762 16.7094C19.6519 16.7137 19.6284 16.7194 19.6042 16.7258C19.5999 16.7272 19.5956 16.7272 19.5914 16.7286C19.5892 16.7294 19.5878 16.7301 19.5857 16.7308C19.5593 16.7386 19.5329 16.7472 19.5073 16.7579C19.4966 16.7621 19.4859 16.7671 19.4745 16.7714C19.4588 16.7785 19.4431 16.7857 19.4274 16.7935C19.4103 16.8021 19.3939 16.8106 19.3775 16.8199C19.3619 16.8284 19.3462 16.8377 19.3312 16.8477C19.3191 16.8555 19.307 16.8641 19.2949 16.8726C19.2813 16.8826 19.2678 16.8926 19.2542 16.9033C19.2421 16.9132 19.2293 16.9232 19.2172 16.9332C19.2001 16.9482 19.183 16.9639 19.1666 16.9795C19.1594 16.9859 19.153 16.9931 19.1466 17.0002C19.1031 17.0458 19.0632 17.0957 19.0276 17.1492C19.0262 17.1513 19.0247 17.1534 19.0233 17.1556C19.0055 17.1827 18.9891 17.2105 18.9734 17.2397C18.9563 17.2732 18.9399 17.3081 18.9221 17.3423C18.8145 17.554 18.7111 17.765 18.6142 17.9767V14.3901V14.3887C18.6142 13.8784 18.1987 13.4629 17.6883 13.4629C17.6256 13.4629 17.5657 13.4707 17.5066 13.4828C17.5037 13.4835 17.5002 13.4842 17.4973 13.485C17.4004 13.5056 17.3084 13.5391 17.225 13.5876V13.3616C17.225 12.8513 16.8095 12.4358 16.2992 12.4358C15.7889 12.4358 15.3733 12.8513 15.3733 13.3616V13.5876C15.2899 13.5391 15.198 13.5056 15.1011 13.485C15.0982 13.4842 15.0954 13.4835 15.0918 13.4828C15.0326 13.4707 14.9728 13.4629 14.9101 13.4629C14.3997 13.4629 13.9842 13.8784 13.9842 14.3887V14.3901V15.6745C13.8481 15.5954 13.6898 15.5498 13.5209 15.5498C13.0106 15.5498 12.5951 15.9653 12.5951 16.4756V20.2168L10.5673 22.6337L10.9215 22.9309L12.5951 20.936V22.6337C12.5951 24.4897 14.1054 26 15.9614 26C17.6848 26 19.1217 24.7128 19.3105 23.0036L19.3162 22.9274H19.3191C19.3319 22.6287 19.3569 22.3315 19.3932 22.0365C19.3954 22.0179 19.3975 21.9994 19.3996 21.9809C19.4025 21.9566 19.4068 21.9331 19.4096 21.9089C19.4638 21.5076 19.5386 21.1099 19.6348 20.7157L21.4937 22.9309L21.8479 22.6337L19.7817 20.1712C19.8294 20.0187 19.8786 19.8669 19.9299 19.7158ZM15.9628 25.5375C14.3612 25.5375 13.0591 24.2353 13.0591 22.6344V16.4756C13.0591 16.2205 13.2665 16.0123 13.5223 16.0123C13.7775 16.0123 13.9856 16.2197 13.9856 16.4756V19.7143H14.4489V16.4756V14.3894C14.4489 14.1343 14.6563 13.9261 14.9122 13.9261C15.1674 13.9261 15.3755 14.1335 15.3755 14.3894V18.6851V19.2518H15.8388V18.6851V14.3894V14.388V13.3602C15.8388 13.1051 16.0462 12.8969 16.302 12.8969C16.5572 12.8969 16.7653 13.1043 16.7653 13.3602V14.388V14.3894V18.6851V19.2518H17.2286V18.6851V14.3894C17.2286 14.1343 17.436 13.9261 17.6919 13.9261C17.9471 13.9261 18.1552 14.1335 18.1552 14.3894V19.0921C18.0019 19.5055 17.8658 19.9282 17.7461 20.3679C17.6506 20.6537 17.5422 21.0543 17.4945 21.5069C17.4496 22.3551 17.0461 22.9281 16.2949 23.2096C15.6157 23.4619 14.8545 23.1184 14.6 22.4377C14.4767 22.1084 14.4888 21.7506 14.6342 21.4306C14.7789 21.1127 15.0376 20.8704 15.3634 20.7464C15.8074 20.5874 16.3006 20.8155 16.466 21.2581C16.6228 21.6758 16.4396 22.1405 16.0419 22.3387C16.0162 22.3508 15.9899 22.3622 15.9621 22.3729C15.9542 22.3764 15.9478 22.3786 15.9442 22.38C15.7425 22.4548 15.5166 22.3522 15.441 22.1512C15.3655 21.9488 15.4681 21.7236 15.6691 21.648L15.5073 21.2139C15.0661 21.3793 14.8423 21.8718 15.007 22.313C15.1353 22.6551 15.461 22.8668 15.8074 22.8668C15.9072 22.8668 16.0091 22.849 16.1089 22.8119C16.1117 22.8105 16.116 22.8091 16.121 22.8069V22.8076C16.1267 22.8055 16.1317 22.8027 16.1374 22.8005C16.1816 22.7827 16.2564 22.7513 16.2728 22.7428L16.2707 22.7392C16.8651 22.4277 17.1352 21.7271 16.8986 21.0956C16.6442 20.4164 15.8879 20.0679 15.208 20.3095V20.3088C15.2051 20.3095 15.203 20.3109 15.2001 20.3123C15.1959 20.3138 15.1916 20.3152 15.1866 20.3166L15.1873 20.318C14.7518 20.4869 14.4054 20.8127 14.2116 21.2389C14.0148 21.6715 13.9985 22.1555 14.1652 22.6009C14.4332 23.3151 15.1132 23.757 15.8345 23.757C16.0419 23.757 16.2522 23.7207 16.4574 23.6437C17.2892 23.3322 17.791 22.71 17.9235 21.8369L17.925 21.8376C17.925 21.8376 18.1331 20.9901 18.2443 20.5561L18.2507 20.5589C18.3597 20.0835 18.4966 19.6153 18.657 19.1555C18.6876 19.0679 18.7182 18.9809 18.7503 18.8947C18.7724 18.8362 18.7952 18.7778 18.8173 18.7193C18.8508 18.6324 18.8857 18.5469 18.9207 18.4613C18.9463 18.3993 18.972 18.3373 18.9991 18.2753C19.0326 18.1983 19.0668 18.1221 19.101 18.0465C19.1309 17.9809 19.1601 17.9147 19.1908 17.8498C19.2407 17.7443 19.2927 17.6402 19.3447 17.5376C19.3583 17.5112 19.3704 17.4849 19.3839 17.4585C19.3925 17.4414 19.4025 17.4243 19.4125 17.4086C19.5251 17.2368 19.7282 17.1428 19.9028 17.1663C19.9228 17.1698 19.9435 17.1734 19.9627 17.1798C19.9641 17.1805 19.9648 17.1805 19.9663 17.1812C19.9912 17.1898 20.0147 17.2005 20.0368 17.214C20.1986 17.3124 20.2813 17.5055 20.262 17.6958C20.2549 17.7586 20.2364 17.822 20.205 17.8819V17.8826C20.1238 18.0408 20.0475 18.1998 19.9741 18.3601C19.3241 19.7607 18.952 21.2353 18.8658 22.7528C18.8629 22.7955 18.8601 22.8376 18.8579 22.8803C18.8544 22.8989 18.8522 22.9195 18.8522 22.9416C18.6969 24.4199 17.4546 25.5375 15.9628 25.5375Z" fill="white"/>
</g>
<defs>
<clipPath id="clip0_127_1997">
<rect width="32" height="32" rx="16" fill="white"/>
</clipPath>
</defs>
</svg>
